<svg width="58" height="57" viewBox="0 0 58 57" fill="none" xmlns="http://www.w3.org/2000/svg">
<g clip-path="url(#clip0_3_463)">
<path d="M29.0469 56.0339C44.2534 56.0339 56.5808 43.7065 56.5808 28.5C56.5808 13.2934 44.2534 0.966064 29.0469 0.966064C13.8403 0.966064 1.51297 13.2934 1.51297 28.5C1.51297 43.7065 13.8403 56.0339 29.0469 56.0339Z" fill="white" stroke="#00A335" stroke-width="1.06271"/>
<path fill-rule="evenodd" clip-rule="evenodd" d="M40.2287 40.762C28.4697 40.762 18.9028 31.1186 18.9028 19.2651C18.9028 18.2311 19.7368 17.3898 20.7633 17.3898H25.0212C26.0477 17.3898 26.8825 18.2311 26.8825 19.2651C26.8825 20.6942 27.1045 22.0992 27.5422 23.4398C27.7565 24.1218 27.5802 24.8519 27.0834 25.3526L25.1716 27.9134C26.7637 30.9381 28.6271 32.8147 31.6497 34.4414L34.2564 32.4578C34.6878 32.0159 35.4347 31.8396 36.0938 32.0669C37.4147 32.5074 38.8087 32.7312 40.2287 32.7312C41.2552 32.7312 42.0892 33.5725 42.0892 34.6064V38.8867C42.0892 39.9206 41.2552 40.762 40.2287 40.762ZM40.8013 34.6064C40.8013 34.2885 40.5449 34.0293 40.2287 34.0293C38.6717 34.0293 37.1421 33.7835 35.6842 33.2977C35.4811 33.2297 35.2549 33.2814 35.1003 33.4351L32.1008 35.7254C31.902 35.8762 31.6371 35.8996 31.4193 35.7849C27.8422 33.9379 25.6465 31.7241 23.8394 28.1443C23.727 27.9226 23.7495 27.6563 23.8984 27.4587L26.1138 24.5028C26.3302 24.2762 26.3836 24.0531 26.3168 23.8392C25.8377 22.3747 25.5938 20.833 25.5938 19.2651C25.5938 18.9471 25.3374 18.6879 25.0212 18.6879H20.7633C20.4479 18.6879 20.1914 18.9471 20.1914 19.2651C20.1914 30.4027 29.18 39.4639 40.2287 39.4639C40.5449 39.4639 40.8013 39.2054 40.8013 38.8867V34.6064ZM40.1367 27.7774H33.9831L31.5956 30.1845C31.472 30.3085 31.3075 30.3743 31.1403 30.3743C31.0574 30.3743 30.9724 30.3588 30.893 30.3248C30.6534 30.2249 30.496 29.9877 30.496 29.7249V20.6552C30.496 19.5816 31.3631 18.7077 32.4282 18.7077H40.1367C41.2025 18.7077 42.0689 19.5816 42.0689 20.6552V25.8299C42.0689 26.9035 41.2025 27.7774 40.1367 27.7774ZM40.781 20.6552C40.781 20.2976 40.4922 20.0065 40.1367 20.0065H32.4282C32.0734 20.0065 31.7839 20.2976 31.7839 20.6552V28.1577L33.2608 26.6691C33.3817 26.5473 33.5454 26.4786 33.7168 26.4786H40.1367C40.4922 26.4786 40.781 26.1883 40.781 25.8299V20.6552Z" fill="#00A335" stroke="white" stroke-width="0.19322"/>
</g>
<defs>
<clipPath id="clip0_3_463">
<rect width="57" height="57" fill="white" transform="translate(0.546875)"/>
</clipPath>
</defs>
</svg>
