<svg width="58" height="57" viewBox="0 0 58 57" fill="none" xmlns="http://www.w3.org/2000/svg">
<g clip-path="url(#clip0_3_425)">
<path d="M29.0469 56.0339C44.2534 56.0339 56.5808 43.7065 56.5808 28.5C56.5808 13.2934 44.2534 0.966095 29.0469 0.966095C13.8403 0.966095 1.51297 13.2934 1.51297 28.5C1.51297 43.7065 13.8403 56.0339 29.0469 56.0339Z" fill="white" stroke="#00A335" stroke-width="1.06271"/>
<path fill-rule="evenodd" clip-rule="evenodd" d="M37.0069 24.0379H33.1933V20.2244L36.6128 16.8049C34.8459 16.1377 32.8666 16.355 31.2865 17.3896C30.3846 17.9317 29.6295 18.6869 29.0874 19.5888C28.0358 21.1816 27.818 23.1842 28.5026 24.9659L18.7272 34.6905C18.2211 35.196 17.9367 35.8819 17.9367 36.5972C17.9367 37.3126 18.2211 37.9985 18.7272 38.504C19.2327 39.0101 19.9187 39.2945 20.634 39.2945C21.3493 39.2945 22.0353 39.0101 22.5408 38.504L32.3162 28.7286C34.0831 29.3958 36.0624 29.1785 37.6425 28.1439C38.5444 27.6017 39.2995 26.8466 39.8416 25.9447C40.8933 24.3519 41.111 22.3492 40.4264 20.5676L37.0069 24.0379Z" stroke="#00A335" stroke-width="1.06271" stroke-linecap="round" stroke-linejoin="round"/>
<path d="M34.6147 28.9831L40.1825 34.5509C40.6886 35.0564 40.973 35.7423 40.973 36.4576C40.973 37.173 40.6886 37.8589 40.1825 38.3644C39.677 38.8705 38.991 39.1549 38.2757 39.1549C37.5604 39.1549 36.8744 38.8705 36.3689 38.3644L29.5299 31.5254" stroke="#00A335" stroke-width="0.966102" stroke-linecap="round" stroke-linejoin="round"/>
<path d="M25.8816 27.2415L20.1613 21.5212L19.2079 22.4746L17.9367 18.661L19.2079 17.3898L23.0215 18.661L22.0681 19.6144L27.7884 25.3347" stroke="#00A335" stroke-width="0.966102" stroke-linecap="round" stroke-linejoin="round"/>
</g>
<defs>
<clipPath id="clip0_3_425">
<rect width="57" height="57" fill="white" transform="translate(0.546875)"/>
</clipPath>
</defs>
</svg>
