<svg width="58" height="57" viewBox="0 0 58 57" fill="none" xmlns="http://www.w3.org/2000/svg">
<g clip-path="url(#clip0_3_445)">
<path d="M29.0469 56.0339C44.2534 56.0339 56.5808 43.7066 56.5808 28.5C56.5808 13.2935 44.2534 0.966125 29.0469 0.966125C13.8403 0.966125 1.51298 13.2935 1.51298 28.5C1.51298 43.7066 13.8403 56.0339 29.0469 56.0339Z" fill="white" stroke="#00A335" stroke-width="1.06271"/>
<path fill-rule="evenodd" clip-rule="evenodd" d="M39.915 36.1848H32.3061C32.3293 37.0621 32.4957 38.4651 33.1161 39.1236C33.3431 39.3658 33.6047 39.4788 33.9374 39.4788C34.2384 39.4788 34.481 39.7239 34.481 40.0272C34.481 40.3312 34.2384 40.5763 33.9374 40.5763H24.1563C23.856 40.5763 23.6128 40.3312 23.6128 40.0272C23.6128 39.7239 23.856 39.4788 24.1563 39.4788C24.4884 39.4788 24.7499 39.3658 24.9784 39.1236C25.5973 38.4651 25.7644 37.0621 25.7877 36.1848H18.178C16.9788 36.1848 16.0045 35.2002 16.0045 33.9898V18.6195C16.0045 17.4083 16.9788 16.4238 18.178 16.4238H39.915C41.1142 16.4238 42.0892 17.4083 42.0892 18.6195V33.9898C42.0892 35.2002 41.1142 36.1848 39.915 36.1848ZM32.0156 39.4781C31.3593 38.4623 31.2324 36.9989 31.2161 36.1848H26.8776C26.8614 36.9989 26.7345 38.4623 26.0781 39.4781H32.0156ZM41.0021 18.6195C41.0021 18.0143 40.5143 17.5213 39.915 17.5213H18.178C17.5788 17.5213 17.0916 18.0143 17.0916 18.6195V30.6958H30.5972L30.5443 30.6823C30.3011 30.6205 30.1304 30.3996 30.1304 30.1467V26.8534C30.1304 26.6005 30.3011 26.3796 30.5443 26.3178L32.2814 25.8795C32.3082 25.8106 32.335 25.7431 32.3639 25.6756L31.4431 24.1263C31.3148 23.9096 31.3487 23.6312 31.5256 23.4522L33.8317 21.1229C34.0072 20.9446 34.2822 20.909 34.4986 21.0397L36.0319 21.9696C36.0989 21.9412 36.1659 21.9135 36.2343 21.8865L36.6686 20.1326C36.7292 19.8868 36.9477 19.7142 37.198 19.7142H40.4586C40.7096 19.7142 40.9281 19.8868 40.9888 20.1326L41.0021 20.1859V18.6195ZM41.0021 22.9158C40.9288 22.8867 40.859 22.8519 40.7836 22.8256C40.6095 22.7652 40.4776 22.6189 40.4332 22.4385L40.0321 20.8188H37.6252L37.2241 22.4385C37.1797 22.6189 37.0471 22.7645 36.8737 22.8256C36.6537 22.9023 36.4415 22.9876 36.235 23.0884C36.07 23.1701 35.8754 23.1609 35.7154 23.065L34.3019 22.2083L32.5993 23.9281L33.4481 25.3552C33.5426 25.5151 33.5511 25.7126 33.4714 25.8802C33.3706 26.089 33.2867 26.3036 33.2106 26.5252C33.1506 26.7014 33.0061 26.8342 32.8278 26.8797L31.2239 27.2846V29.7162L32.8278 30.1204C33.0061 30.1659 33.1506 30.2994 33.2106 30.4749C33.2374 30.5509 33.2705 30.6219 33.3008 30.6958H35.083C34.6995 30.033 34.4774 29.2871 34.4774 28.5C34.4774 26.077 36.4296 24.1057 38.8287 24.1057C39.6077 24.1057 40.3465 24.3295 41.0021 24.7173V22.9158ZM41.0021 26.0727C40.4015 25.5222 39.6422 25.2096 38.8287 25.2096C37.0323 25.2096 35.5709 26.6858 35.5709 28.5C35.5709 29.3212 35.8804 30.0884 36.426 30.6958H41.0021V26.0727ZM41.0021 31.7933H17.0916V33.9898C17.0916 34.5943 17.5795 35.0873 18.178 35.0873H39.915C40.515 35.0873 41.0021 34.5943 41.0021 33.9898V31.7933ZM29.0469 34.5382C28.4469 34.5382 27.9598 34.0466 27.9598 33.4407C27.9598 32.834 28.4469 32.3424 29.0469 32.3424C29.6468 32.3424 30.1333 32.834 30.1333 33.4407C30.1333 34.0466 29.6468 34.5382 29.0469 34.5382Z" fill="#00A335"/>
</g>
<defs>
<clipPath id="clip0_3_445">
<rect width="57" height="57" fill="white" transform="translate(0.546875)"/>
</clipPath>
</defs>
</svg>
