<svg width="18" height="14" viewBox="0 0 18 14" fill="none" xmlns="http://www.w3.org/2000/svg">
<path d="M15.25 0.5625H4.9375C3.88281 0.5625 3.0625 1.41211 3.0625 2.4375V9C3.0625 10.0547 3.88281 10.875 4.9375 10.875H15.25C16.2754 10.875 17.125 10.0547 17.125 9V2.4375C17.125 1.41211 16.2754 0.5625 15.25 0.5625ZM15.7188 9C15.7188 9.26367 15.4844 9.46875 15.25 9.46875H14.7812L11.5586 4.78125C11.4707 4.63477 11.3242 4.54688 11.1777 4.54688C11.002 4.54688 10.8555 4.63477 10.7676 4.78125L8.95117 7.53516L8.27734 6.62695C8.18945 6.50977 8.07227 6.42188 7.92578 6.42188C7.75 6.42188 7.63281 6.50977 7.54492 6.62695L5.40625 9.46875H4.9375C4.67383 9.46875 4.46875 9.26367 4.46875 9V2.4375C4.46875 2.20312 4.67383 1.96875 4.9375 1.96875H15.25C15.4844 1.96875 15.7188 2.20312 15.7188 2.4375V9ZM6.8125 2.90625C6.28516 2.90625 5.875 3.3457 5.875 3.84375C5.875 4.37109 6.28516 4.78125 6.8125 4.78125C7.31055 4.78125 7.75 4.37109 7.75 3.84375C7.75 3.3457 7.31055 2.90625 6.8125 2.90625ZM13.6094 13.6875H3.76562C1.80273 13.6875 0.25 12.1348 0.25 10.1719V3.14062C0.25 2.75977 0.542969 2.4375 0.953125 2.4375C1.33398 2.4375 1.65625 2.75977 1.65625 3.14062V10.1719C1.65625 11.3438 2.59375 12.2812 3.76562 12.2812H13.6094C13.9902 12.2812 14.3125 12.6035 14.3125 12.9844C14.3125 13.3945 13.9902 13.6875 13.6094 13.6875Z" fill="#00A335"/>
</svg>
