<svg width="42" height="42" viewBox="0 0 42 42" fill="none" xmlns="http://www.w3.org/2000/svg">
<mask id="path-1-inside-1_3_844" fill="white">
<path d="M0 12C0 5.37258 5.37258 0 12 0H42V42H12C5.37258 42 0 36.6274 0 30V12Z"/>
</mask>
<path d="M0 12C0 5.37258 5.37258 0 12 0H42V42H12C5.37258 42 0 36.6274 0 30V12Z" fill="#003087"/>
<g clip-path="url(#clip0_3_844)">
<mask id="mask0_3_844" style="mask-type:luminance" maskUnits="userSpaceOnUse" x="6" y="6" width="32" height="31">
<path d="M37.3664 6.00708H6.46985V36.9036H37.3664V6.00708Z" fill="white"/>
</mask>
<g mask="url(#mask0_3_844)">
<path d="M29.8097 16.355C30.2014 16.3059 30.5999 16.3532 30.9663 16.4921C31.3325 16.631 31.6538 16.8568 31.8985 17.1473C32.5 17.8035 33.2524 18.3238 34.0993 18.6692C34.8147 18.9548 35.0794 19.4904 35.2343 20.1264C35.4561 21.048 35.2082 21.9272 34.9101 22.7886C34.636 23.6429 34.2981 24.478 33.899 25.2879C33.3494 26.3736 33.0846 27.5662 33.1265 28.7668C33.1265 30.0099 33.1265 31.255 33.1265 32.498C33.1265 32.8595 33.0836 33.221 33.0501 33.5803C33.012 33.9998 32.7688 34.2319 32.3777 34.2498C32.286 34.2524 32.1946 34.2381 32.1089 34.2075C32.0232 34.1768 31.9447 34.1307 31.8782 34.0716C31.8117 34.0124 31.7583 33.9415 31.7213 33.8629C31.6843 33.7843 31.6642 33.6997 31.6623 33.6137C31.5766 32.9868 31.5074 32.3553 31.424 31.7282C31.3238 30.8511 31.2355 29.9741 31.1164 29.0994C31.0833 28.8885 31.0019 28.6868 30.8779 28.5081C30.6729 28.2135 30.3796 28.2246 30.2556 28.5527C30.0886 29.0074 29.9602 29.4737 29.8717 29.9474C29.5449 31.6232 29.2421 33.2947 28.9178 34.984C28.8865 35.1503 28.8328 35.3123 28.7581 35.466C28.5625 35.8698 28.3169 35.9658 27.8186 35.8609C27.6492 35.8291 27.5001 35.736 27.4037 35.6019C27.3073 35.4677 27.2713 35.3034 27.3035 35.1447C27.3918 34.2096 27.5086 33.2791 27.6159 32.3463C27.7447 31.2439 27.8925 30.1459 27.9975 29.0436C27.9733 28.8208 27.9087 28.6034 27.8067 28.4009C27.6193 28.5266 27.4522 28.6769 27.3107 28.8472C26.1265 30.7901 24.9524 32.7398 23.7888 34.6961C23.7282 34.8308 23.6297 34.9477 23.5037 35.0341C23.3777 35.1206 23.229 35.1735 23.0734 35.187C22.9157 35.1954 22.7585 35.1647 22.6176 35.098C22.4766 35.0313 22.3571 34.9309 22.2709 34.807C22.1847 34.6831 22.1351 34.5402 22.1269 34.3925C22.1188 34.2449 22.1525 34.0979 22.2245 33.9664C22.7015 32.8975 23.2285 31.8375 23.7411 30.7775C24.218 29.8001 24.7069 28.8316 25.1719 27.8542C25.3029 27.5797 25.5104 27.2316 25.1838 27.0151C24.857 26.7986 24.6163 27.1223 24.4017 27.3253C22.8374 28.804 21.2764 30.2873 19.7185 31.7749C19.6599 31.8442 19.5868 31.9016 19.5037 31.9434C19.4206 31.9853 19.3291 32.0108 19.2351 32.0183C19.1411 32.0258 19.0464 32.0152 18.9568 31.9871C18.8673 31.9592 18.7849 31.9143 18.7146 31.8553C18.3069 31.554 18.1995 31.1256 18.4761 30.7551C18.8815 30.233 19.325 29.7377 19.7327 29.2199C20.9942 27.6176 22.2866 26.0355 23.4836 24.3908C23.9308 23.7219 24.2805 22.9999 24.5233 22.2441C24.8141 21.4474 24.4111 20.9877 23.5146 20.9967C22.8637 20.9967 22.2126 21.0591 21.5617 21.0949C20.7915 21.1351 20.0356 21.0949 19.3536 20.7155C19.0723 20.5593 18.7456 20.3785 18.8124 20.0215C18.8791 19.6645 19.2558 19.6778 19.5491 19.6532C21.2875 19.4926 22.8421 18.8789 24.3873 18.1737C25.6344 17.6092 26.9077 17.0871 28.2025 16.6117C28.7225 16.4553 29.2637 16.3689 29.8097 16.355Z" fill="white"/>
<path d="M22.2007 23.8908C21.3161 25.0802 20.3885 26.2429 19.4634 27.3987C19.3613 27.4983 19.2219 27.5566 19.0746 27.5617C18.3951 27.6019 17.7131 27.6264 17.0336 27.6375C16.8305 27.6397 16.6297 27.5977 16.447 27.5148C15.652 27.125 15.042 26.4705 14.7373 25.6804C14.1856 24.3909 13.8099 23.0413 13.619 21.6637C13.4483 20.67 13.0408 19.725 12.4267 18.8989C11.519 17.5971 10.6145 16.2976 9.71316 15.0003C9.6254 14.8663 9.54579 14.7277 9.47472 14.5853C9.42747 14.519 9.39473 14.4447 9.37838 14.3665C9.36204 14.2884 9.36241 14.2079 9.37948 14.1299C9.39655 14.0519 9.42999 13.9778 9.47785 13.9119C9.52571 13.8461 9.58705 13.7898 9.65832 13.7462C9.78865 13.6502 9.95399 13.6057 10.1189 13.6224C10.2838 13.6391 10.4352 13.7156 10.5406 13.8355C10.8601 14.1457 11.151 14.4782 11.4443 14.8084C12.1907 15.6408 12.9227 16.4821 13.6762 17.3078C14.6825 18.3923 15.1307 18.1223 14.6133 16.77C14.5704 16.6561 14.5251 16.5468 14.4726 16.4374C13.743 14.862 12.9871 13.2642 12.2431 11.6709C12.1247 11.4236 12.0282 11.1676 11.9546 10.9055C11.833 10.4748 11.9832 10.236 12.4315 10.0553C12.8202 9.90129 13.1111 9.98162 13.3352 10.3744C13.9075 11.3674 14.4535 12.3828 15.0044 13.378C15.4264 14.139 15.8461 14.9022 16.2777 15.6609C16.3743 15.8295 16.492 15.9868 16.6282 16.1296C16.6622 16.1654 16.7046 16.1934 16.7523 16.2112C16.7999 16.2291 16.8513 16.2363 16.9024 16.2322C16.974 16.2076 17.0312 16.0804 17.0478 15.9912C17.0658 15.8563 17.0658 15.7199 17.0478 15.585C16.9334 14.0229 16.8095 12.4609 16.6974 10.8832C16.6639 10.1758 16.5829 9.46391 16.5185 8.75428C16.5219 8.55242 16.604 8.35867 16.7493 8.20949C16.8947 8.06031 17.0933 7.96598 17.3078 7.94423C17.6559 7.88844 18.1638 8.22987 18.2616 8.64047C18.4261 9.37911 18.5597 10.1267 18.6884 10.872C18.946 12.3671 19.1844 13.8623 19.4443 15.3552C19.4967 15.6497 19.5468 16.0469 19.9475 16.0447C20.348 16.0425 20.3433 15.6386 20.4004 15.3753C20.8106 13.3312 21.2302 11.2915 21.6523 9.25191C21.7453 8.8056 22.0434 8.61146 22.5441 8.67395C22.653 8.68343 22.7587 8.71301 22.8553 8.76098C22.9519 8.80896 23.0373 8.87436 23.1067 8.95341C23.1762 9.03247 23.2281 9.12362 23.2597 9.22158C23.2911 9.31954 23.3016 9.42239 23.2905 9.52416C23.2285 10.4168 23.1474 11.3272 23.0974 12.231C23.0036 13.8362 22.9249 15.434 22.8612 17.0243C22.8552 17.1511 22.8078 17.2732 22.7256 17.374C22.6433 17.475 22.5301 17.5499 22.4011 17.589C21.6451 17.8232 20.8964 18.0799 20.1334 18.2875C19.7657 18.3478 19.3947 18.3888 19.0222 18.4102C18.2592 18.5307 17.6869 18.9055 17.489 19.6286C17.3872 19.9703 17.3979 20.3327 17.5197 20.6687C17.6413 21.0047 17.8682 21.2985 18.171 21.512C18.8687 22.0668 19.752 22.3754 20.6676 22.3846C21.3542 22.4001 22.0434 22.3064 22.7325 22.3265C23.3691 22.3466 22.5465 23.4267 22.2007 23.8908Z" fill="white"/>
</g>
</g>
<path d="M-1 12C-1 4.8203 4.8203 -1 12 -1H42V1H12C5.92487 1 1 5.92487 1 12H-1ZM42 43H12C4.8203 43 -1 37.1797 -1 30H1C1 36.0751 5.92487 41 12 41H42V43ZM12 43C4.8203 43 -1 37.1797 -1 30V12C-1 4.8203 4.8203 -1 12 -1V1C5.92487 1 1 5.92487 1 12V30C1 36.0751 5.92487 41 12 41V43ZM42 0V42V0Z" fill="white" mask="url(#path-1-inside-1_3_844)"/>
<defs>
<clipPath id="clip0_3_844">
<rect width="32" height="32" fill="white" transform="translate(5.5 5)"/>
</clipPath>
</defs>
</svg>
