<svg width="16" height="16" viewBox="0 0 16 16" fill="none" xmlns="http://www.w3.org/2000/svg">
<path fill-rule="evenodd" clip-rule="evenodd" d="M7.82626 8.81538L14.5741 15.6373C14.6974 15.762 14.8592 15.8244 15.0207 15.8244C15.1823 15.8244 15.344 15.7622 15.4675 15.6373C15.7143 15.3882 15.7143 14.9834 15.4675 14.7343L8.71957 7.91226L15.4675 1.09015C15.7143 0.841011 15.7143 0.436264 15.4675 0.187121C15.2207 -0.0623736 14.8209 -0.0623736 14.5741 0.187121L7.8263 7.00919L1.07848 0.187297C0.831696 -0.0621978 0.43187 -0.0621978 0.185087 0.187297C-0.0616957 0.43644 -0.0616957 0.841187 0.185087 1.09033L6.933 7.91231L0.185261 14.7343C-0.0615217 14.9834 -0.0615217 15.3882 0.185261 15.6373C0.308565 15.762 0.470304 15.8244 0.63187 15.8244C0.793435 15.8244 0.955174 15.7622 1.07848 15.6373L7.82626 8.81538Z" fill="#5E6573"/>
</svg>
