<svg width="40" height="36" viewBox="0 0 40 36" fill="none" xmlns="http://www.w3.org/2000/svg">
<path d="M18 0.5H39.5V35.5H18C8.33502 35.5 0.5 27.665 0.5 18C0.5 8.33502 8.33502 0.5 18 0.5Z" fill="#00A335"/>
<path d="M29.875 9.375H17.5C16.2344 9.375 15.25 10.3945 15.25 11.625V19.5C15.25 20.7656 16.2344 21.75 17.5 21.75H29.875C31.1055 21.75 32.125 20.7656 32.125 19.5V11.625C32.125 10.3945 31.1055 9.375 29.875 9.375ZM30.4375 19.5C30.4375 19.8164 30.1562 20.0625 29.875 20.0625H29.3125L25.4453 14.4375C25.3398 14.2617 25.1641 14.1562 24.9883 14.1562C24.7773 14.1562 24.6016 14.2617 24.4961 14.4375L22.3164 17.7422L21.5078 16.6523C21.4023 16.5117 21.2617 16.4062 21.0859 16.4062C20.875 16.4062 20.7344 16.5117 20.6289 16.6523L18.0625 20.0625H17.5C17.1836 20.0625 16.9375 19.8164 16.9375 19.5V11.625C16.9375 11.3438 17.1836 11.0625 17.5 11.0625H29.875C30.1562 11.0625 30.4375 11.3438 30.4375 11.625V19.5ZM19.75 12.1875C19.1172 12.1875 18.625 12.7148 18.625 13.3125C18.625 13.9453 19.1172 14.4375 19.75 14.4375C20.3477 14.4375 20.875 13.9453 20.875 13.3125C20.875 12.7148 20.3477 12.1875 19.75 12.1875ZM27.9062 25.125H16.0938C13.7383 25.125 11.875 23.2617 11.875 20.9062V12.4688C11.875 12.0117 12.2266 11.625 12.7188 11.625C13.1758 11.625 13.5625 12.0117 13.5625 12.4688V20.9062C13.5625 22.3125 14.6875 23.4375 16.0938 23.4375H27.9062C28.3633 23.4375 28.75 23.8242 28.75 24.2812C28.75 24.7734 28.3633 25.125 27.9062 25.125Z" fill="white"/>
<path d="M18 0.5H39.5V35.5H18C8.33502 35.5 0.5 27.665 0.5 18C0.5 8.33502 8.33502 0.5 18 0.5Z" stroke="#00A335"/>
</svg>
