<svg width="60" height="59" viewBox="0 0 60 59" fill="none" xmlns="http://www.w3.org/2000/svg">
<g clip-path="url(#clip0_3_613)">
<path d="M29.5469 58C45.287 58 58.0469 45.2401 58.0469 29.5C58.0469 13.7599 45.287 1 29.5469 1C13.8068 1 1.04688 13.7599 1.04688 29.5C1.04688 45.2401 13.8068 58 29.5469 58Z" stroke="#00A335" stroke-width="1.1"/>
<path d="M42.9575 26.6012H42.742C41.8441 20.1619 36.0618 15.1696 29.202 15.1696C22.3422 15.1696 16.5599 20.1619 15.6979 26.6012H15.4824C14.1895 26.6012 13.1479 27.6503 13.1479 28.9526V30.1826C13.1479 31.4849 14.1895 32.534 15.4824 32.534H18.3556V33.5469C18.3556 39.5883 23.2401 44.5082 29.2379 44.5082C35.2358 44.5082 40.1202 39.5883 40.1202 33.5469V32.534H42.9934C44.2864 32.534 45.3279 31.4849 45.3279 30.1826V28.9526C45.2561 27.6503 44.2146 26.6012 42.9575 26.6012ZM38.6477 33.5107C38.6477 38.7562 34.4097 43.025 29.202 43.025C23.9943 43.025 19.7563 38.7562 19.7563 33.5107V32.4978H38.6118V33.5107H38.6477ZM43.8195 30.1826C43.8195 30.689 43.4244 31.087 42.9216 31.087H15.4465C14.9437 31.087 14.5486 30.689 14.5486 30.1826V28.9526C14.5486 28.4461 14.9437 28.0482 15.4465 28.0482H21.5521C21.9471 28.0482 22.2704 27.7226 22.2704 27.3247C22.2704 26.9268 21.9471 26.6012 21.5521 26.6012H17.1345C17.9965 20.9578 23.1323 16.6167 29.202 16.6167C35.2717 16.6167 40.4075 20.9578 41.2695 26.6012H36.8519C36.4569 26.6012 36.1336 26.9268 36.1336 27.3247C36.1336 27.7226 36.4569 28.0482 36.8519 28.0482H42.9575C43.4603 28.0482 43.8554 28.4461 43.8554 28.9526V30.1826H43.8195Z" fill="#00A335"/>
<path d="M24.8627 38.5C26.3627 39.8333 27.8627 40.5 29.3627 40.5C30.8627 40.5 32.3627 39.8333 33.8627 38.5" stroke="#00A335" stroke-width="1.3" stroke-linecap="square"/>
<path d="M24.0469 35C24.5992 35 25.0469 34.5523 25.0469 34C25.0469 33.4477 24.5992 33 24.0469 33C23.4946 33 23.0469 33.4477 23.0469 34C23.0469 34.5523 23.4946 35 24.0469 35Z" fill="#00A335"/>
<path d="M34.0469 35C34.5992 35 35.0469 34.5523 35.0469 34C35.0469 33.4477 34.5992 33 34.0469 33C33.4946 33 33.0469 33.4477 33.0469 34C33.0469 34.5523 33.4946 35 34.0469 35Z" fill="#00A335"/>
</g>
<defs>
<clipPath id="clip0_3_613">
<rect width="59" height="59" fill="white" transform="translate(0.046875)"/>
</clipPath>
</defs>
</svg>
